<mxfile host="app.diagrams.net" modified="2024-02-16T11:06:21.144Z" agent="Mozilla/5.0 (Windows NT 10.0; Win64; x64) AppleWebKit/537.36 (KHTML, like Gecko) Chrome/121.0.0.0 Safari/537.36" etag="hlY3kv1I9ewlxULJFoOF" version="23.1.5" type="device">
  <diagram name="Страница — 1" id="FMWFwdfGVgK8CCEmc2PM">
    <mxGraphModel dx="1500" dy="757" grid="1" gridSize="10" guides="1" tooltips="1" connect="1" arrows="1" fold="1" page="1" pageScale="1" pageWidth="827" pageHeight="1169" math="0" shadow="0">
      <root>
        <mxCell id="0" />
        <mxCell id="1" parent="0" />
        <mxCell id="uzIJkzM0i0495yDgrQae-4" style="edgeStyle=orthogonalEdgeStyle;rounded=0;orthogonalLoop=1;jettySize=auto;html=1;exitX=1;exitY=0.5;exitDx=0;exitDy=0;entryX=0;entryY=0.5;entryDx=0;entryDy=0;" edge="1" parent="1" source="uzIJkzM0i0495yDgrQae-1" target="uzIJkzM0i0495yDgrQae-2">
          <mxGeometry relative="1" as="geometry" />
        </mxCell>
        <mxCell id="uzIJkzM0i0495yDgrQae-1" value="" style="ellipse;whiteSpace=wrap;html=1;aspect=fixed;fillColor=#000000;" vertex="1" parent="1">
          <mxGeometry y="320" width="40" height="40" as="geometry" />
        </mxCell>
        <mxCell id="uzIJkzM0i0495yDgrQae-6" style="edgeStyle=orthogonalEdgeStyle;rounded=0;orthogonalLoop=1;jettySize=auto;html=1;exitX=1;exitY=0.5;exitDx=0;exitDy=0;entryX=0;entryY=0.5;entryDx=0;entryDy=0;" edge="1" parent="1" source="uzIJkzM0i0495yDgrQae-2" target="uzIJkzM0i0495yDgrQae-5">
          <mxGeometry relative="1" as="geometry" />
        </mxCell>
        <mxCell id="uzIJkzM0i0495yDgrQae-2" value="" style="rounded=1;whiteSpace=wrap;html=1;fillColor=#FFD4A3;" vertex="1" parent="1">
          <mxGeometry x="90" y="310" width="120" height="60" as="geometry" />
        </mxCell>
        <mxCell id="uzIJkzM0i0495yDgrQae-3" value="Форма восстановления пароля" style="text;strokeColor=none;align=center;fillColor=none;html=1;verticalAlign=middle;whiteSpace=wrap;rounded=0;fontSize=13;" vertex="1" parent="1">
          <mxGeometry x="100" y="310" width="100" height="60" as="geometry" />
        </mxCell>
        <mxCell id="uzIJkzM0i0495yDgrQae-8" style="edgeStyle=orthogonalEdgeStyle;rounded=0;orthogonalLoop=1;jettySize=auto;html=1;exitX=0.5;exitY=1;exitDx=0;exitDy=0;entryX=0.5;entryY=0;entryDx=0;entryDy=0;" edge="1" parent="1" source="uzIJkzM0i0495yDgrQae-5" target="uzIJkzM0i0495yDgrQae-7">
          <mxGeometry relative="1" as="geometry" />
        </mxCell>
        <mxCell id="uzIJkzM0i0495yDgrQae-13" style="edgeStyle=orthogonalEdgeStyle;rounded=0;orthogonalLoop=1;jettySize=auto;html=1;exitX=1;exitY=0.5;exitDx=0;exitDy=0;entryX=0;entryY=0.5;entryDx=0;entryDy=0;" edge="1" parent="1" source="uzIJkzM0i0495yDgrQae-5" target="uzIJkzM0i0495yDgrQae-12">
          <mxGeometry relative="1" as="geometry" />
        </mxCell>
        <mxCell id="uzIJkzM0i0495yDgrQae-5" value="" style="rounded=1;whiteSpace=wrap;html=1;" vertex="1" parent="1">
          <mxGeometry x="330" y="310" width="120" height="60" as="geometry" />
        </mxCell>
        <mxCell id="uzIJkzM0i0495yDgrQae-9" style="edgeStyle=orthogonalEdgeStyle;rounded=0;orthogonalLoop=1;jettySize=auto;html=1;exitX=0;exitY=0.5;exitDx=0;exitDy=0;entryX=0.5;entryY=1;entryDx=0;entryDy=0;" edge="1" parent="1" source="uzIJkzM0i0495yDgrQae-7" target="uzIJkzM0i0495yDgrQae-3">
          <mxGeometry relative="1" as="geometry" />
        </mxCell>
        <mxCell id="uzIJkzM0i0495yDgrQae-7" value="" style="rhombus;whiteSpace=wrap;html=1;" vertex="1" parent="1">
          <mxGeometry x="370" y="430" width="40" height="30" as="geometry" />
        </mxCell>
        <mxCell id="uzIJkzM0i0495yDgrQae-10" value="Валидация данных на клиенте" style="text;strokeColor=none;align=center;fillColor=none;html=1;verticalAlign=middle;whiteSpace=wrap;rounded=0;fontSize=13;" vertex="1" parent="1">
          <mxGeometry x="340" y="315" width="100" height="50" as="geometry" />
        </mxCell>
        <mxCell id="uzIJkzM0i0495yDgrQae-11" value="[Ошибка]" style="text;strokeColor=none;align=center;fillColor=none;html=1;verticalAlign=middle;whiteSpace=wrap;rounded=0;fontSize=13;" vertex="1" parent="1">
          <mxGeometry x="400" y="390" width="60" height="30" as="geometry" />
        </mxCell>
        <mxCell id="uzIJkzM0i0495yDgrQae-15" style="edgeStyle=orthogonalEdgeStyle;rounded=0;orthogonalLoop=1;jettySize=auto;html=1;exitX=0.5;exitY=1;exitDx=0;exitDy=0;entryX=0.5;entryY=0;entryDx=0;entryDy=0;" edge="1" parent="1" source="uzIJkzM0i0495yDgrQae-12" target="uzIJkzM0i0495yDgrQae-14">
          <mxGeometry relative="1" as="geometry" />
        </mxCell>
        <mxCell id="uzIJkzM0i0495yDgrQae-12" value="" style="rounded=1;whiteSpace=wrap;html=1;" vertex="1" parent="1">
          <mxGeometry x="560" y="310" width="120" height="60" as="geometry" />
        </mxCell>
        <mxCell id="uzIJkzM0i0495yDgrQae-16" style="edgeStyle=orthogonalEdgeStyle;rounded=0;orthogonalLoop=1;jettySize=auto;html=1;exitX=0;exitY=0.5;exitDx=0;exitDy=0;entryX=1;entryY=0.5;entryDx=0;entryDy=0;" edge="1" parent="1" source="uzIJkzM0i0495yDgrQae-14" target="uzIJkzM0i0495yDgrQae-7">
          <mxGeometry relative="1" as="geometry" />
        </mxCell>
        <mxCell id="uzIJkzM0i0495yDgrQae-14" value="" style="rhombus;whiteSpace=wrap;html=1;" vertex="1" parent="1">
          <mxGeometry x="600" y="430" width="40" height="30" as="geometry" />
        </mxCell>
        <mxCell id="uzIJkzM0i0495yDgrQae-17" value="[Ошибка]" style="text;strokeColor=none;align=center;fillColor=none;html=1;verticalAlign=middle;whiteSpace=wrap;rounded=0;fontSize=13;" vertex="1" parent="1">
          <mxGeometry x="620" y="390" width="60" height="30" as="geometry" />
        </mxCell>
        <mxCell id="uzIJkzM0i0495yDgrQae-18" value="[успех]" style="text;strokeColor=none;align=center;fillColor=none;html=1;verticalAlign=middle;whiteSpace=wrap;rounded=0;fontSize=13;" vertex="1" parent="1">
          <mxGeometry x="470" y="310" width="60" height="30" as="geometry" />
        </mxCell>
        <mxCell id="uzIJkzM0i0495yDgrQae-21" style="edgeStyle=orthogonalEdgeStyle;rounded=0;orthogonalLoop=1;jettySize=auto;html=1;exitX=1;exitY=0.5;exitDx=0;exitDy=0;entryX=0;entryY=0.5;entryDx=0;entryDy=0;" edge="1" parent="1" source="uzIJkzM0i0495yDgrQae-19" target="uzIJkzM0i0495yDgrQae-20">
          <mxGeometry relative="1" as="geometry" />
        </mxCell>
        <mxCell id="uzIJkzM0i0495yDgrQae-19" value="Отправка введенных данных на сервер (JSON)" style="text;strokeColor=none;align=center;fillColor=none;html=1;verticalAlign=middle;whiteSpace=wrap;rounded=0;fontSize=13;" vertex="1" parent="1">
          <mxGeometry x="560" y="315" width="120" height="50" as="geometry" />
        </mxCell>
        <mxCell id="uzIJkzM0i0495yDgrQae-24" style="edgeStyle=orthogonalEdgeStyle;rounded=0;orthogonalLoop=1;jettySize=auto;html=1;exitX=0.5;exitY=1;exitDx=0;exitDy=0;entryX=0.5;entryY=0;entryDx=0;entryDy=0;" edge="1" parent="1" source="uzIJkzM0i0495yDgrQae-20" target="uzIJkzM0i0495yDgrQae-22">
          <mxGeometry relative="1" as="geometry" />
        </mxCell>
        <mxCell id="uzIJkzM0i0495yDgrQae-29" style="edgeStyle=orthogonalEdgeStyle;rounded=0;orthogonalLoop=1;jettySize=auto;html=1;exitX=1;exitY=0.5;exitDx=0;exitDy=0;entryX=0;entryY=0.5;entryDx=0;entryDy=0;" edge="1" parent="1" source="uzIJkzM0i0495yDgrQae-20" target="uzIJkzM0i0495yDgrQae-28">
          <mxGeometry relative="1" as="geometry" />
        </mxCell>
        <mxCell id="uzIJkzM0i0495yDgrQae-20" value="" style="rounded=1;whiteSpace=wrap;html=1;" vertex="1" parent="1">
          <mxGeometry x="820" y="310" width="120" height="60" as="geometry" />
        </mxCell>
        <mxCell id="uzIJkzM0i0495yDgrQae-23" style="edgeStyle=orthogonalEdgeStyle;rounded=0;orthogonalLoop=1;jettySize=auto;html=1;exitX=0;exitY=0.5;exitDx=0;exitDy=0;entryX=1;entryY=0.5;entryDx=0;entryDy=0;" edge="1" parent="1" source="uzIJkzM0i0495yDgrQae-22" target="uzIJkzM0i0495yDgrQae-14">
          <mxGeometry relative="1" as="geometry" />
        </mxCell>
        <mxCell id="uzIJkzM0i0495yDgrQae-22" value="" style="rhombus;whiteSpace=wrap;html=1;" vertex="1" parent="1">
          <mxGeometry x="860" y="430" width="40" height="30" as="geometry" />
        </mxCell>
        <mxCell id="uzIJkzM0i0495yDgrQae-25" value="[Ошибка]" style="text;strokeColor=none;align=center;fillColor=none;html=1;verticalAlign=middle;whiteSpace=wrap;rounded=0;fontSize=13;" vertex="1" parent="1">
          <mxGeometry x="820" y="380" width="60" height="30" as="geometry" />
        </mxCell>
        <mxCell id="uzIJkzM0i0495yDgrQae-26" value="[успех]" style="text;strokeColor=none;align=center;fillColor=none;html=1;verticalAlign=middle;whiteSpace=wrap;rounded=0;fontSize=13;" vertex="1" parent="1">
          <mxGeometry x="720" y="310" width="60" height="30" as="geometry" />
        </mxCell>
        <mxCell id="uzIJkzM0i0495yDgrQae-27" value="Валидация данных на сервере" style="text;strokeColor=none;align=center;fillColor=none;html=1;verticalAlign=middle;whiteSpace=wrap;rounded=0;fontSize=13;" vertex="1" parent="1">
          <mxGeometry x="825" y="315" width="110" height="50" as="geometry" />
        </mxCell>
        <mxCell id="uzIJkzM0i0495yDgrQae-35" style="edgeStyle=orthogonalEdgeStyle;rounded=0;orthogonalLoop=1;jettySize=auto;html=1;exitX=0.5;exitY=1;exitDx=0;exitDy=0;entryX=0.5;entryY=0;entryDx=0;entryDy=0;" edge="1" parent="1" source="uzIJkzM0i0495yDgrQae-28" target="uzIJkzM0i0495yDgrQae-34">
          <mxGeometry relative="1" as="geometry" />
        </mxCell>
        <mxCell id="uzIJkzM0i0495yDgrQae-28" value="" style="rounded=1;whiteSpace=wrap;html=1;" vertex="1" parent="1">
          <mxGeometry x="1050" y="310" width="170" height="60" as="geometry" />
        </mxCell>
        <mxCell id="uzIJkzM0i0495yDgrQae-30" value="" style="endArrow=classic;html=1;rounded=0;exitX=0;exitY=1;exitDx=0;exitDy=0;entryX=1;entryY=0.5;entryDx=0;entryDy=0;" edge="1" parent="1" source="uzIJkzM0i0495yDgrQae-28" target="uzIJkzM0i0495yDgrQae-22">
          <mxGeometry width="50" height="50" relative="1" as="geometry">
            <mxPoint x="920" y="470" as="sourcePoint" />
            <mxPoint x="970" y="420" as="targetPoint" />
            <Array as="points">
              <mxPoint x="1050" y="445" />
            </Array>
          </mxGeometry>
        </mxCell>
        <mxCell id="uzIJkzM0i0495yDgrQae-31" value="[Ошибка]" style="text;strokeColor=none;align=center;fillColor=none;html=1;verticalAlign=middle;whiteSpace=wrap;rounded=0;fontSize=13;" vertex="1" parent="1">
          <mxGeometry x="990" y="365" width="60" height="30" as="geometry" />
        </mxCell>
        <mxCell id="uzIJkzM0i0495yDgrQae-32" value="[успех]" style="text;strokeColor=none;align=center;fillColor=none;html=1;verticalAlign=middle;whiteSpace=wrap;rounded=0;fontSize=13;" vertex="1" parent="1">
          <mxGeometry x="960" y="310" width="60" height="30" as="geometry" />
        </mxCell>
        <mxCell id="uzIJkzM0i0495yDgrQae-33" value="Проверка наличия аккаунта с введенным e-mail" style="text;strokeColor=none;align=center;fillColor=none;html=1;verticalAlign=middle;whiteSpace=wrap;rounded=0;" vertex="1" parent="1">
          <mxGeometry x="1042.5" y="320" width="185" height="40" as="geometry" />
        </mxCell>
        <mxCell id="uzIJkzM0i0495yDgrQae-52" style="edgeStyle=orthogonalEdgeStyle;rounded=0;orthogonalLoop=1;jettySize=auto;html=1;exitX=0;exitY=0.5;exitDx=0;exitDy=0;entryX=1;entryY=0.5;entryDx=0;entryDy=0;" edge="1" parent="1" source="uzIJkzM0i0495yDgrQae-34" target="uzIJkzM0i0495yDgrQae-38">
          <mxGeometry relative="1" as="geometry" />
        </mxCell>
        <mxCell id="uzIJkzM0i0495yDgrQae-57" style="edgeStyle=orthogonalEdgeStyle;rounded=0;orthogonalLoop=1;jettySize=auto;html=1;exitX=0.5;exitY=1;exitDx=0;exitDy=0;entryX=1;entryY=0.5;entryDx=0;entryDy=0;" edge="1" parent="1" source="uzIJkzM0i0495yDgrQae-34" target="uzIJkzM0i0495yDgrQae-54">
          <mxGeometry relative="1" as="geometry" />
        </mxCell>
        <mxCell id="uzIJkzM0i0495yDgrQae-34" value="" style="rounded=1;whiteSpace=wrap;html=1;" vertex="1" parent="1">
          <mxGeometry x="1050" y="510" width="170" height="60" as="geometry" />
        </mxCell>
        <mxCell id="uzIJkzM0i0495yDgrQae-36" value="Аккаунт существует" style="text;strokeColor=none;align=center;fillColor=none;html=1;verticalAlign=middle;whiteSpace=wrap;rounded=0;fontSize=13;" vertex="1" parent="1">
          <mxGeometry x="1140" y="410" width="130" height="30" as="geometry" />
        </mxCell>
        <mxCell id="uzIJkzM0i0495yDgrQae-37" value="Проверка токена восстановления пароля" style="text;strokeColor=none;align=center;fillColor=none;html=1;verticalAlign=middle;whiteSpace=wrap;rounded=0;" vertex="1" parent="1">
          <mxGeometry x="1070" y="515" width="130" height="50" as="geometry" />
        </mxCell>
        <mxCell id="uzIJkzM0i0495yDgrQae-43" style="edgeStyle=orthogonalEdgeStyle;rounded=0;orthogonalLoop=1;jettySize=auto;html=1;exitX=0.5;exitY=0;exitDx=0;exitDy=0;entryX=0.5;entryY=1;entryDx=0;entryDy=0;" edge="1" parent="1" source="uzIJkzM0i0495yDgrQae-38" target="uzIJkzM0i0495yDgrQae-7">
          <mxGeometry relative="1" as="geometry" />
        </mxCell>
        <mxCell id="uzIJkzM0i0495yDgrQae-38" value="" style="rounded=1;whiteSpace=wrap;html=1;" vertex="1" parent="1">
          <mxGeometry x="310" y="510" width="160" height="60" as="geometry" />
        </mxCell>
        <mxCell id="uzIJkzM0i0495yDgrQae-46" style="edgeStyle=orthogonalEdgeStyle;rounded=0;orthogonalLoop=1;jettySize=auto;html=1;exitX=0.5;exitY=0;exitDx=0;exitDy=0;exitPerimeter=0;" edge="1" parent="1" source="uzIJkzM0i0495yDgrQae-39">
          <mxGeometry relative="1" as="geometry">
            <mxPoint x="190" y="540" as="targetPoint" />
          </mxGeometry>
        </mxCell>
        <mxCell id="uzIJkzM0i0495yDgrQae-39" value="" style="shape=callout;whiteSpace=wrap;html=1;perimeter=calloutPerimeter;fillColor=#FFF6A8;" vertex="1" parent="1">
          <mxGeometry x="120" y="585" width="140" height="95" as="geometry" />
        </mxCell>
        <mxCell id="uzIJkzM0i0495yDgrQae-40" value="" style="verticalLabelPosition=bottom;verticalAlign=top;html=1;shape=mxgraph.flowchart.or;" vertex="1" parent="1">
          <mxGeometry y="520" width="40" height="40" as="geometry" />
        </mxCell>
        <mxCell id="uzIJkzM0i0495yDgrQae-42" style="edgeStyle=orthogonalEdgeStyle;rounded=0;orthogonalLoop=1;jettySize=auto;html=1;exitX=0;exitY=0.5;exitDx=0;exitDy=0;entryX=1;entryY=0.5;entryDx=0;entryDy=0;entryPerimeter=0;" edge="1" parent="1" source="uzIJkzM0i0495yDgrQae-38" target="uzIJkzM0i0495yDgrQae-40">
          <mxGeometry relative="1" as="geometry" />
        </mxCell>
        <mxCell id="uzIJkzM0i0495yDgrQae-44" value="[Ошибка]" style="text;strokeColor=none;align=center;fillColor=none;html=1;verticalAlign=middle;whiteSpace=wrap;rounded=0;fontSize=13;" vertex="1" parent="1">
          <mxGeometry x="400" y="470" width="60" height="30" as="geometry" />
        </mxCell>
        <mxCell id="uzIJkzM0i0495yDgrQae-45" value="Сообщение: на почту отправлено письмо для восстановления" style="text;strokeColor=none;align=center;fillColor=none;html=1;verticalAlign=middle;whiteSpace=wrap;rounded=0;" vertex="1" parent="1">
          <mxGeometry x="125" y="590" width="130" height="50" as="geometry" />
        </mxCell>
        <mxCell id="uzIJkzM0i0495yDgrQae-47" value="Отправка письма для восстановления пароля" style="text;strokeColor=none;align=center;fillColor=none;html=1;verticalAlign=middle;whiteSpace=wrap;rounded=0;fontSize=13;" vertex="1" parent="1">
          <mxGeometry x="317.5" y="520" width="145" height="40" as="geometry" />
        </mxCell>
        <mxCell id="uzIJkzM0i0495yDgrQae-50" value="" style="endArrow=classic;html=1;rounded=0;exitX=0;exitY=0;exitDx=0;exitDy=0;entryX=1;entryY=0.5;entryDx=0;entryDy=0;" edge="1" parent="1" source="uzIJkzM0i0495yDgrQae-34" target="uzIJkzM0i0495yDgrQae-22">
          <mxGeometry width="50" height="50" relative="1" as="geometry">
            <mxPoint x="840" y="520" as="sourcePoint" />
            <mxPoint x="890" y="470" as="targetPoint" />
            <Array as="points">
              <mxPoint x="1050" y="445" />
            </Array>
          </mxGeometry>
        </mxCell>
        <mxCell id="uzIJkzM0i0495yDgrQae-51" value="[Ошибка]" style="text;strokeColor=none;align=center;fillColor=none;html=1;verticalAlign=middle;whiteSpace=wrap;rounded=0;fontSize=13;" vertex="1" parent="1">
          <mxGeometry x="990" y="450" width="60" height="30" as="geometry" />
        </mxCell>
        <mxCell id="uzIJkzM0i0495yDgrQae-53" value="Токен сгенерирован" style="text;strokeColor=none;align=center;fillColor=none;html=1;verticalAlign=middle;whiteSpace=wrap;rounded=0;" vertex="1" parent="1">
          <mxGeometry x="660" y="510" width="190" height="30" as="geometry" />
        </mxCell>
        <mxCell id="uzIJkzM0i0495yDgrQae-55" style="edgeStyle=orthogonalEdgeStyle;rounded=0;orthogonalLoop=1;jettySize=auto;html=1;exitX=0.5;exitY=0;exitDx=0;exitDy=0;entryX=0.5;entryY=1;entryDx=0;entryDy=0;" edge="1" parent="1" source="uzIJkzM0i0495yDgrQae-54" target="uzIJkzM0i0495yDgrQae-22">
          <mxGeometry relative="1" as="geometry" />
        </mxCell>
        <mxCell id="uzIJkzM0i0495yDgrQae-61" style="edgeStyle=orthogonalEdgeStyle;rounded=0;orthogonalLoop=1;jettySize=auto;html=1;exitX=0;exitY=0.5;exitDx=0;exitDy=0;entryX=1;entryY=0.5;entryDx=0;entryDy=0;" edge="1" parent="1" source="uzIJkzM0i0495yDgrQae-54" target="uzIJkzM0i0495yDgrQae-60">
          <mxGeometry relative="1" as="geometry" />
        </mxCell>
        <mxCell id="uzIJkzM0i0495yDgrQae-54" value="" style="rounded=1;whiteSpace=wrap;html=1;" vertex="1" parent="1">
          <mxGeometry x="820" y="630" width="120" height="60" as="geometry" />
        </mxCell>
        <mxCell id="uzIJkzM0i0495yDgrQae-56" value="[Ошибка]" style="text;strokeColor=none;align=center;fillColor=none;html=1;verticalAlign=middle;whiteSpace=wrap;rounded=0;fontSize=13;" vertex="1" parent="1">
          <mxGeometry x="880" y="490" width="60" height="30" as="geometry" />
        </mxCell>
        <mxCell id="uzIJkzM0i0495yDgrQae-58" value="Токен не сгенерирован" style="text;strokeColor=none;align=center;fillColor=none;html=1;verticalAlign=middle;whiteSpace=wrap;rounded=0;" vertex="1" parent="1">
          <mxGeometry x="970" y="660" width="190" height="30" as="geometry" />
        </mxCell>
        <mxCell id="uzIJkzM0i0495yDgrQae-59" value="Генерация токена" style="text;strokeColor=none;align=center;fillColor=none;html=1;verticalAlign=middle;whiteSpace=wrap;rounded=0;" vertex="1" parent="1">
          <mxGeometry x="830" y="640" width="100" height="40" as="geometry" />
        </mxCell>
        <mxCell id="uzIJkzM0i0495yDgrQae-64" style="edgeStyle=orthogonalEdgeStyle;rounded=0;orthogonalLoop=1;jettySize=auto;html=1;exitX=0.5;exitY=0;exitDx=0;exitDy=0;entryX=0.5;entryY=1;entryDx=0;entryDy=0;" edge="1" parent="1" source="uzIJkzM0i0495yDgrQae-60" target="uzIJkzM0i0495yDgrQae-14">
          <mxGeometry relative="1" as="geometry" />
        </mxCell>
        <mxCell id="uzIJkzM0i0495yDgrQae-66" style="edgeStyle=orthogonalEdgeStyle;rounded=0;orthogonalLoop=1;jettySize=auto;html=1;exitX=0;exitY=0.5;exitDx=0;exitDy=0;entryX=0.5;entryY=1;entryDx=0;entryDy=0;" edge="1" parent="1" source="uzIJkzM0i0495yDgrQae-60" target="uzIJkzM0i0495yDgrQae-38">
          <mxGeometry relative="1" as="geometry" />
        </mxCell>
        <mxCell id="uzIJkzM0i0495yDgrQae-60" value="" style="rounded=1;whiteSpace=wrap;html=1;" vertex="1" parent="1">
          <mxGeometry x="560" y="630" width="120" height="60" as="geometry" />
        </mxCell>
        <mxCell id="uzIJkzM0i0495yDgrQae-62" value="Обновление базы данных" style="text;strokeColor=none;align=center;fillColor=none;html=1;verticalAlign=middle;whiteSpace=wrap;rounded=0;" vertex="1" parent="1">
          <mxGeometry x="575" y="640" width="90" height="40" as="geometry" />
        </mxCell>
        <mxCell id="uzIJkzM0i0495yDgrQae-63" value="[успех]" style="text;strokeColor=none;align=center;fillColor=none;html=1;verticalAlign=middle;whiteSpace=wrap;rounded=0;fontSize=13;" vertex="1" parent="1">
          <mxGeometry x="725" y="630" width="60" height="30" as="geometry" />
        </mxCell>
        <mxCell id="uzIJkzM0i0495yDgrQae-65" value="[Ошибка]" style="text;strokeColor=none;align=center;fillColor=none;html=1;verticalAlign=middle;whiteSpace=wrap;rounded=0;fontSize=13;" vertex="1" parent="1">
          <mxGeometry x="620" y="565" width="60" height="30" as="geometry" />
        </mxCell>
        <mxCell id="uzIJkzM0i0495yDgrQae-67" value="[успех]" style="text;strokeColor=none;align=center;fillColor=none;html=1;verticalAlign=middle;whiteSpace=wrap;rounded=0;fontSize=13;" vertex="1" parent="1">
          <mxGeometry x="462.5" y="630" width="60" height="30" as="geometry" />
        </mxCell>
      </root>
    </mxGraphModel>
  </diagram>
</mxfile>
